<svg xmlns="http://www.w3.org/2000/svg" width="12" height="16" viewBox="0 0 12 16" fill="none">
<path d="M6 8C8.206 8 10 6.206 10 4C10 1.794 8.206 0 6 0C3.794 0 2 1.794 2 4C2 6.206 3.794 8 6 8ZM6 1.33333C7.47067 1.33333 8.66667 2.52933 8.66667 4C8.66667 5.47067 7.47067 6.66667 6 6.66667C4.52933 6.66667 3.33333 5.47067 3.33333 4C3.33333 2.52933 4.52933 1.33333 6 1.33333ZM12 15.3333C12 15.7013 11.702 16 11.3333 16C10.9647 16 10.6667 15.7013 10.6667 15.3333C10.6667 13.3207 9.38333 11.6067 7.594 10.9533L6.58267 12.4707L7.31133 15.1307C7.43333 15.5747 7.04133 16.0007 6.51067 16.0007H5.48933C4.95867 16.0007 4.56733 15.5747 4.68867 15.1307L5.41733 12.4707L4.406 10.9533C2.61667 11.6067 1.33333 13.3207 1.33333 15.334C1.33333 15.702 1.03467 16.0007 0.666667 16.0007C0.298667 16.0007 0 15.702 0 15.334C0 12.026 2.692 9.334 6 9.334C9.308 9.334 12 12.0253 12 15.3333Z" fill="black"/>
</svg>